<svg xmlns="http://www.w3.org/2000/svg">
  <!-- Usage -->
  <!-- <svg class="nav-icon"><use xlink:href="assets/img/icons.svg#icon-xxx"></use></svg> -->

  <symbol id="icon-windows"       viewBox="0 0 14 16"><path d="M5 3h1v1h-1V3zM3 3h1v1h-1V3zM1 3h1v1H1V3zM13 13H1V5h12V13zM13 4H7v-1h6V4zM14 3c0-0.55-0.45-1-1-1H1c-0.55 0-1 0.45-1 1v10c0 0.55 0.45 1 1 1h12c0.55 0 1-0.45 1-1V3z" /></symbol>
  <symbol id="icon-menu"          viewBox="0 0 12 16"><path d="M11.41 9H0.59c-0.59 0-0.59-0.41-0.59-1s0-1 0.59-1h10.81c0.59 0 0.59 0.41 0.59 1s0 1-0.59 1z m0-4H0.59c-0.59 0-0.59-0.41-0.59-1s0-1 0.59-1h10.81c0.59 0 0.59 0.41 0.59 1s0 1-0.59 1zM0.59 11h10.81c0.59 0 0.59 0.41 0.59 1s0 1-0.59 1H0.59c-0.59 0-0.59-0.41-0.59-1s0-1 0.59-1z" /></symbol>
  <symbol id="icon-native-ui"     viewBox="0 0 16 16"><path d="M15 2H1c-0.55 0-1 0.45-1 1v9c0 0.55 0.45 1 1 1h5.34c-0.25 0.61-0.86 1.39-2.34 2h8c-1.48-0.61-2.09-1.39-2.34-2h5.34c0.55 0 1-0.45 1-1V3c0-0.55-0.45-1-1-1z m0 9H1V3h14v8z" /></symbol>
  <symbol id="icon-communication" viewBox="0 0 16 16"><path d="M10 1c-0.17 0-0.36 0.05-0.52 0.14-1.44 0.88-4.98 3.44-6.48 3.86-1.38 0-3 0.67-3 2.5s1.63 2.5 3 2.5c0.3 0.08 0.64 0.23 1 0.41v4.59h2V11.55c1.34 0.86 2.69 1.83 3.48 2.31 0.16 0.09 0.34 0.14 0.52 0.14 0.52 0 1-0.42 1-1V2c0-0.58-0.48-1-1-1z m0 12c-0.38-0.23-0.89-0.58-1.5-1-0.16-0.11-0.33-0.22-0.5-0.34V3.31c0.16-0.11 0.31-0.2 0.47-0.31 0.61-0.41 1.16-0.77 1.53-1v11z m2-6h4v1H12v-1z m0 2l4 2v1L12 10v-1z m4-6v1L12 6v-1l4-2z" /></symbol>
  <symbol id="icon-system"        viewBox="0 0 16 16"><path d="M8 5h-1v-1h1v1z m4 3h-1v1h1v-1zM5 5h-1v1h1v-1z m-1 3h-1v1h1v-1z m11-5.5l-0.5-0.5-6.5 5c-0.06-0.02-1 0-1 0-0.55 0-1 0.45-1 1v1c0 0.55 0.45 1 1 1h1c0.55 0 1-0.45 1-1v-0.92l6-5.58zM13.41 6.59c0.19 0.61 0.3 1.25 0.3 1.91 0 3.42-2.78 6.2-6.2 6.2S1.3 11.92 1.3 8.5s2.78-6.2 6.2-6.2c1.2 0 2.31 0.34 3.27 0.94l0.94-0.94c-1.19-0.81-2.64-1.3-4.2-1.3C3.36 1 0 4.36 0 8.5s3.36 7.5 7.5 7.5 7.5-3.36 7.5-7.5c0-1.03-0.2-2.02-0.59-2.91l-1 1z" /></symbol>
  <symbol id="icon-media"         viewBox="0 0 12 16"><path d="M6 5h2v2H6V5z m6-0.5v9.5c0 0.55-0.45 1-1 1H1c-0.55 0-1-0.45-1-1V2c0-0.55 0.45-1 1-1h7.5l3.5 3.5z m-1 0.5L8 2H1v11l3-5 2 4 2-2 3 3V5z" /></symbol>
  <symbol id="icon-notification" viewBox="0 0 32 32">
<path d="M32.047 25c0-9-8-7-8-14 0-0.58-0.056-1.076-0.158-1.498-0.526-3.532-2.88-6.366-5.93-7.23 0.027-0.123 0.041-0.251 0.041-0.382 0-1.040-0.9-1.891-2-1.891s-2 0.851-2 1.891c0 0.131 0.014 0.258 0.041 0.382-3.421 0.969-5.966 4.416-6.039 8.545-0.001 0.060-0.002 0.121-0.002 0.183 0 7-8 5-8 14 0 2.382 5.331 4.375 12.468 4.878 0.673 1.263 2.002 2.122 3.532 2.122s2.86-0.86 3.532-2.122c7.137-0.503 12.468-2.495 12.468-4.878 0-0.007-0.001-0.014-0.001-0.021l0.048 0.021zM25.82 26.691c-1.695 0.452-3.692 0.777-5.837 0.958-0.178-2.044-1.893-3.648-3.984-3.648s-3.805 1.604-3.984 3.648c-2.144-0.18-4.142-0.506-5.837-0.958-2.332-0.622-3.447-1.318-3.855-1.691 0.408-0.372 1.523-1.068 3.855-1.691 2.712-0.724 6.199-1.122 9.82-1.122s7.109 0.398 9.82 1.122c2.332 0.622 3.447 1.318 3.855 1.691-0.408 0.372-1.523 1.068-3.855 1.691z"></path>
</symbol>

  <!-- Electron (32x32) -->
  <symbol id="icon-electron" viewBox="0 0 32 32" stroke-width="1.25" stroke-linecap="round" stroke="none" fill="none" fill-rule="evenodd">
    <path fill="currentColor" d="M16.3166155,18.3358593 C15.5069762,18.5107902 14.7093189,17.9962674 14.5340397,17.1866556 C14.3594452,16.3770439 14.8736432,15.5794137 15.6832825,15.4041405 C16.4929217,15.2292096 17.290579,15.7437324 17.4658582,16.5533441 C17.6407951,17.3629559 17.1262548,18.160586 16.3166155,18.3358593 Z"></path>
    <path stroke="currentColor" d="M11.7054423,7.72924079 C7.9200573,7.04629995 4.81451128,7.69646414 3.61603618,9.7527007 C2.7268637,11.2782634 3.03921758,13.3173666 4.27645322,15.4549657 M6.32821425,18.1957705 C7.8943718,19.9006249 9.96996963,21.5565889 12.4163991,22.9557106 C18.2481396,26.2909038 24.3022575,27.0886771 27.1773167,25.1467919 M29.8571429,24.0660377 C29.8571429,23.2063492 29.1535903,22.509434 28.2857143,22.509434 C27.4178383,22.509434 26.7142857,23.2063492 26.7142857,24.0660377 C26.7142857,24.9257263 27.4178383,25.6226415 28.2857143,25.6226415 C29.1535903,25.6226415 29.8571429,24.9257263 29.8571429,24.0660377 L29.8571429,24.0660377 Z"></path>
    <path stroke="currentColor" d="M26.111681,17.7066994 C28.5900052,14.8065666 29.5677707,11.8255392 28.3717915,9.77358491 C27.4971801,8.27300481 25.6069305,7.52124894 23.1780058,7.48995855 M19.7043666,7.86367207 C17.4117923,8.35023224 14.9002093,9.30797986 12.4285714,10.7215184 C6.42471468,14.1551455 2.65428623,19.1356706 3.16600907,22.5894353 M3.68571472,25.6226415 C4.55359076,25.6226415 5.25714329,24.9257263 5.25714329,24.0660377 C5.25714329,23.2063492 4.55359076,22.509434 3.68571472,22.509434 C2.81783869,22.509434 2.11428615,23.2063492 2.11428615,24.0660377 C2.11428615,24.9257263 2.81783869,25.6226415 3.68571472,25.6226415 L3.68571472,25.6226415 L3.68571472,25.6226415 Z"></path>
    <path stroke="currentColor" d="M10.1890404,25.079941 C11.4849109,28.6643405 13.604776,31 16,31 C17.7357744,31 19.3269404,29.7733976 20.5647004,27.7338484 M22.0592036,24.34604 C22.7459106,22.1722862 23.1428571,19.6025086 23.1428571,16.8490566 C23.1428571,10.0917401 20.752155,4.44064506 17.5550163,3.03441104 M16,4.25471698 C16.867876,4.25471698 17.5714286,3.55780173 17.5714286,2.69811321 C17.5714286,1.83842468 16.867876,1.14150943 16,1.14150943 C15.132124,1.14150943 14.4285714,1.83842468 14.4285714,2.69811321 C14.4285714,3.55780173 15.132124,4.25471698 16,4.25471698 Z"></path>
  </symbol>
</svg>
